<svg width="80" height="80" fill="none" xmlns="http://www.w3.org/2000/svg"><path opacity=".2" fill="url(#a)" d="M0 0h112v80H0z"/><rect x="99.848" y="-72.026" width="141.578" height="166.147" rx="16" transform="rotate(60 99.848 -72.026)"/><rect x="99.848" y="-72.026" width="141.578" height="166.147" rx="16" transform="rotate(60 99.848 -72.026)" fill="url(#b)" fill-opacity=".05"/><rect x="120.623" y="-43.86" width="93.302" height="162.415" rx="46.651" transform="rotate(60 120.623 -43.86)"/><rect x="120.623" y="-43.86" width="93.302" height="162.415" rx="46.651" transform="rotate(60 120.623 -43.86)" fill="url(#c)" fill-opacity=".1"/><rect x="83.769" y="-73.29" width="133.312" height="162.731" rx="64" transform="rotate(45 83.77 -73.29)"/><rect x="83.769" y="-73.29" width="133.312" height="162.731" rx="64" transform="rotate(45 83.77 -73.29)" fill="url(#d)" fill-opacity=".2"/><rect x="-48.081" y="-74.265" width="186.295" height="113.768" rx="16" transform="rotate(30 -48.081 -74.265)"/><rect x="-48.081" y="-74.265" width="186.295" height="113.768" rx="16" transform="rotate(30 -48.081 -74.265)" fill="url(#e)" fill-opacity=".3"/><rect x="-16" y="10" width="112" height="112" rx="56"/><rect x="-16" y="10" width="112" height="112" rx="56" fill="url(#f)" fill-opacity=".4"/><path d="M8 44c0-6.627 5.373-12 12-12h28c13.255 0 24 10.745 24 24v28c0 6.627-5.373 12-12 12H20c-6.627 0-12-5.373-12-12V44Z"/><path d="M8 44c0-6.627 5.373-12 12-12h28c13.255 0 24 10.745 24 24v28c0 6.627-5.373 12-12 12H20c-6.627 0-12-5.373-12-12V44Z" fill="url(#g)" fill-opacity=".5"/><path clip-rule="evenodd" d="M58.003 97.003h-36a2 2 0 0 1-1.997-1.998V48a2 2 0 0 1 1.997-2h27c1.7 0 3.286.435 4.531 1.53l4.984 4.982c1.016 1.144 1.485 2.706 1.485 4.488L60 95.006a2 2 0 0 1-1.997 1.997Z"/><path fill-rule="evenodd" clip-rule="evenodd" d="M58.003 97.003h-36a2 2 0 0 1-1.997-1.998V48a2 2 0 0 1 1.997-2h27c1.7 0 3.286.435 4.531 1.53l4.984 4.982c1.016 1.144 1.485 2.706 1.485 4.488L60 95.006a2 2 0 0 1-1.997 1.997Z" fill="url(#h)"/><path d="M58.518 56.506H51.5a2 2 0 0 1-1.997-1.997v-7.025" stroke="#0055D9" stroke-miterlimit="79.84" stroke-linecap="round"/><defs><linearGradient id="a" x1="85.094" y1=".381" x2="85.094" y2="80.001" gradientUnits="userSpaceOnUse"><stop stop-color="#A1BFFF" stop-opacity=".17"/><stop offset="1" stop-color="#679BFF" stop-opacity=".92"/></linearGradient><linearGradient id="b" x1="207.413" y1="-71.234" x2="207.413" y2="94.124" gradientUnits="userSpaceOnUse"><stop stop-color="#679BFF" stop-opacity=".92"/><stop offset="1" stop-color="#A1BFFF" stop-opacity=".17"/></linearGradient><linearGradient id="c" x1="191.511" y1="-43.086" x2="191.511" y2="118.557" gradientUnits="userSpaceOnUse"><stop stop-color="#679BFF" stop-opacity=".92"/><stop offset="1" stop-color="#A1BFFF" stop-opacity=".17"/></linearGradient><linearGradient id="d" x1="185.055" y1="-72.514" x2="185.055" y2="89.443" gradientUnits="userSpaceOnUse"><stop stop-color="#679BFF" stop-opacity=".92"/><stop offset="1" stop-color="#A1BFFF" stop-opacity=".17"/></linearGradient><linearGradient id="e" x1="93.46" y1="-73.723" x2="93.46" y2="39.505" gradientUnits="userSpaceOnUse"><stop stop-color="#679BFF" stop-opacity=".92"/><stop offset="1" stop-color="#A1BFFF" stop-opacity=".17"/></linearGradient><linearGradient id="f" x1="69.094" y1="10.534" x2="69.094" y2="122.002" gradientUnits="userSpaceOnUse"><stop stop-color="#679BFF" stop-opacity=".92"/><stop offset="1" stop-color="#A1BFFF" stop-opacity=".17"/></linearGradient><linearGradient id="g" x1="56.625" y1="32.305" x2="56.625" y2="96.001" gradientUnits="userSpaceOnUse"><stop stop-color="#679BFF" stop-opacity=".92"/><stop offset="1" stop-color="#A1BFFF" stop-opacity=".17"/></linearGradient><linearGradient id="h" x1="50.394" y1="96.76" x2="50.394" y2="46.001" gradientUnits="userSpaceOnUse"><stop stop-color="#A1BFFF" stop-opacity=".17"/><stop offset="1" stop-color="#679BFF" stop-opacity=".92"/></linearGradient></defs></svg>